SplineFontDB: 3.2
FontName: FontFauzan
FullName: FontFauzan
FamilyName: FontFauzan
Weight: Regular
Copyright: Copyright (c) 2021, vlaka
UComments: "2021-3-6: Created with FontForge (http://fontforge.org)"
Version: 001.000
ItalicAngle: 0
UnderlinePosition: -100
UnderlineWidth: 50
Ascent: 800
Descent: 200
InvalidEm: 0
LayerCount: 2
Layer: 0 0 "Back" 1
Layer: 1 0 "Fore" 0
XUID: [1021 563 1679149253 330]
StyleMap: 0x0000
FSType: 0
OS2Version: 0
OS2_WeightWidthSlopeOnly: 0
OS2_UseTypoMetrics: 1
CreationTime: 1615010399
ModificationTime: 1615034318
OS2TypoAscent: 0
OS2TypoAOffset: 1
OS2TypoDescent: 0
OS2TypoDOffset: 1
OS2TypoLinegap: 90
OS2WinAscent: 0
OS2WinAOffset: 1
OS2WinDescent: 0
OS2WinDOffset: 1
HheadAscent: 0
HheadAOffset: 1
HheadDescent: 0
HheadDOffset: 1
MarkAttachClasses: 1
DEI: 91125
Encoding: ISO8859-1
UnicodeInterp: none
NameList: AGL For New Fonts
DisplaySize: -48
AntiAlias: 1
FitToEm: 0
WinInfo: 0 38 14
BeginPrivate: 0
EndPrivate
BeginChars: 256 62

StartChar: A
Encoding: 65 65 0
Width: 541
Flags: HW
LayerCount: 2
Fore
SplineSet
1000 1590 m 1049
246 457 m 25
 292 421 l 25
 332 459 l 25
 304 513 l 25
 246 457 l 25
56 201 m 25
 300 635 l 25
 500 177 l 25
 372 189 l 25
 332 359 l 25
 238 359 l 25
 186 213 l 25
 56 201 l 25
EndSplineSet
Validated: 1
EndChar

StartChar: B
Encoding: 66 66 1
Width: 502
Flags: HW
LayerCount: 2
Fore
SplineSet
111 343 m 5
 254 343 l 5
 254 248 l 5
 111 248 l 5
 111 343 l 5
113 571 m 1
 246 570 l 1
 245 472 l 1
 116 468 l 1
 113 571 l 1
35 592 m 25
 40 214 l 1
 401 214 l 1
 389 391 l 1
 200 386 l 1
 200 386 202 419 201 419 c 0
 200 419 335 417 337 417 c 0
 339 417 345 602 345 602 c 1
 33 601 l 1
 35 592 l 25
EndSplineSet
Validated: 37
EndChar

StartChar: C
Encoding: 67 67 2
Width: 316
Flags: HW
LayerCount: 2
Fore
SplineSet
275 579 m 25
 275 579 73 549 71 543 c 0
 69 537 37 463 37 451 c 0
 37 439 39 367 39 367 c 1
 83 287 l 1
 287 279 l 1
 285 347 l 1
 285 347 159 347 155 349 c 0
 151 351 137 383 139 383 c 0
 141 383 137 439 131 437 c 0
 125 435 133 487 133 487 c 1
 275 511 l 1
 275 579 l 25
EndSplineSet
Validated: 41
EndChar

StartChar: D
Encoding: 68 68 3
Width: 390
Flags: HW
LayerCount: 2
Fore
SplineSet
51 578 m 25
 223 572 l 1
 327 452 l 25
 303 314 l 25
 65 220 l 1
 51 578 l 25
EndSplineSet
Validated: 1
EndChar

StartChar: E
Encoding: 69 69 4
Width: 518
Flags: HW
LayerCount: 2
Fore
SplineSet
229 346 m 1024
95 614 m 1
 81 232 l 1
 409 224 l 1
 407 306 l 17
 356.525390625 347.024414062 215.177734375 349.202148438 193 322 c 1
 183 408 l 1
 409 420 l 1
 408.322265625 417.288085938 409.831054688 490.955078125 407 486 c 0
 407 486 185 472 185 472 c 1
 187 534 l 1
 409 554 l 1
 409 554 429 624 417 626 c 0
 405 628 221 606 95 614 c 1
EndSplineSet
Validated: 524325
EndChar

StartChar: F
Encoding: 70 70 5
Width: 432
Flags: HW
LayerCount: 2
Fore
SplineSet
63 248 m 1
 75 616 l 25
 75 616 355 614 357 614 c 0
 359 614 359 516 359 516 c 1
 183 530 l 1
 183 530 193 448 189 448 c 0
 185 448 347 438 347 438 c 1
 347 438 355 352 351 352 c 0
 347 352 185 376 187 376 c 0
 189 376 175 270 175 270 c 25
 175 270 179 244 177 244 c 0
 175 244 63 248 63 248 c 1
EndSplineSet
Validated: 37
EndChar

StartChar: G
Encoding: 71 71 6
Width: 502
Flags: HW
LayerCount: 2
Fore
SplineSet
397 607 m 29
 397 607 132.995117188 596.859375 131 597 c 4
 75.7275390625 600.905273438 72.1005859375 476.092773438 87 475 c 13
 85 347 l 29
 85 347 65 301 97 289 c 4
 129 277 427 283 427 283 c 29
 439 389 l 5
 439 389 443 415 441 415 c 4
 439 415 429 451 429 451 c 5
 429 451 367 449 369 447 c 4
 371 445 303.626953125 444.524414062 307 437 c 4
 310.955078125 428.177734375 305.709960938 342.427734375 297 361 c 4
 278.440429688 400.576171875 177.748046875 368.909179688 191 401 c 4
 198.859375 420.032226562 215 519 217 519 c 4
 219 519 393 545 393 545 c 5
 431 613 l 29
 409 611 l 29
 397 607 l 29
EndSplineSet
Validated: 524329
EndChar

StartChar: H
Encoding: 72 72 7
Width: 554
Flags: HW
LayerCount: 2
Fore
SplineSet
63 671 m 1
 69 171 l 1
 173 171 l 1
 197 313 l 1
 327 309 l 1
 327 309 371 187 367 185 c 0
 363 183 489 169 491 169 c 0
 493 169 487 677 487 677 c 1
 373 665 l 1
 373 665 329 479 329 473 c 0
 329 467 203 457 201 459 c 0
 199 461 201 655 201 657 c 0
 201 659 63 671 63 671 c 1
EndSplineSet
Validated: 41
EndChar

StartChar: I
Encoding: 73 73 8
Width: 229
Flags: HW
LayerCount: 2
Fore
SplineSet
57 639 m 5
 45 205 l 5
 189 208 l 5
 193 615 l 5
 57 639 l 5
EndSplineSet
Validated: 9
EndChar

StartChar: J
Encoding: 74 74 9
Width: 387
Flags: HW
LayerCount: 2
Fore
SplineSet
87 292 m 5
 41 252 l 29
 41 252 61 210 61 208 c 4
 61 206 123 202 123 202 c 5
 349 214 l 5
 345 658 l 5
 285 624 l 5
 285 624 239 584 241 582 c 4
 243 580 235 432 235 432 c 5
 235 332 l 5
 87 292 l 5
EndSplineSet
Validated: 41
EndChar

StartChar: K
Encoding: 75 75 10
Width: 466
Flags: HW
LayerCount: 2
Fore
SplineSet
91 213 m 1
 87 621 l 25
 159 619 l 25
 159 619 169 483 169 481 c 0
 169 479 337 563 339 565 c 0
 341 567 393 527 393 527 c 25
 393 527 247 417 247 415 c 0
 247 413 387 245 387 245 c 25
 271 229 l 25
 205 361 l 25
 173 369 l 1
 173 217 l 25
 91 213 l 1
EndSplineSet
Validated: 33
EndChar

StartChar: L
Encoding: 76 76 11
Width: 468
Flags: HW
LayerCount: 2
Fore
SplineSet
35 637 m 5
 35 637 47 213 47 211 c 4
 47 209 397 211 397 211 c 29
 409 305 l 29
 147 315 l 5
 147 315 135 643 135 641 c 4
 135 639 35 637 35 637 c 5
EndSplineSet
Validated: 41
EndChar

StartChar: M
Encoding: 77 77 12
Width: 600
Flags: HW
LayerCount: 2
Fore
SplineSet
85 217 m 1
 87 587 l 25
 289 397 l 25
 501 559 l 25
 547 181 l 25
 483 191 l 1
 483 191 453 429 451 425 c 0
 449 421 413 387 413 387 c 1
 413 387 291 319 291 317 c 0
 291 315 143 453 143 453 c 1
 143 453 143 205 141 205 c 0
 139 205 85 217 85 217 c 1
EndSplineSet
Validated: 33
EndChar

StartChar: N
Encoding: 78 78 13
Width: 428
Flags: HW
LayerCount: 2
Fore
SplineSet
60 233 m 1
 64 575 l 25
 64 575 108 575 110 575 c 0
 112 575 264 365 264 365 c 25
 264 567 l 1
 264 567 350 581 346 577 c 0
 342 573 360 231 360 231 c 1
 360 231 282 237 280 237 c 0
 278 237 130 419 130 419 c 1
 128 229 l 1
 60 233 l 1
EndSplineSet
Validated: 33
EndChar

StartChar: O
Encoding: 79 79 14
Width: 416
Flags: HW
LayerCount: 2
Fore
SplineSet
65 418 m 0
 65 501 130 568 209 568 c 0
 288 568 353 501 353 418 c 0
 353 335 288 268 209 268 c 0
 130 268 65 335 65 418 c 0
EndSplineSet
Validated: 1
EndChar

StartChar: P
Encoding: 80 80 15
Width: 322
Flags: HW
LayerCount: 2
Fore
SplineSet
62 209 m 1
 72 595 l 1
 224 597 l 25
 224 597 276 525 278 513 c 0
 280 501 266 451 256 449 c 0
 246 447 180 443 178 441 c 0
 176 439 144 389 146 371 c 0
 148 353 138 213 138 213 c 1
 62 209 l 1
EndSplineSet
Validated: 33
EndChar

StartChar: Q
Encoding: 81 81 16
Width: 322
Flags: HW
LayerCount: 2
Fore
SplineSet
18 390 m 0
 18 471 80 537 156 537 c 0
 232 537 294 471 294 390 c 0
 294 352.559206851 280.753177034 318.323290225 259 292.32899833 c 1
 259 162 l 1
 190 162 l 1
 190 247.525609407 l 1
 179.117414089 244.570964949 167.725324539 243 156 243 c 0
 80 243 18 309 18 390 c 0
EndSplineSet
Validated: 524289
EndChar

StartChar: R
Encoding: 82 82 17
Width: 364
Flags: HW
LayerCount: 2
Fore
SplineSet
103 567 m 1
 103 567 103 567 89 545 c 0
 75 523 89 537 89 511 c 0
 89 485 91 495 95 493 c 0
 99 491 113 495 139 501 c 0
 165 507 155 501 189 505 c 0
 223 509 221 537 221 551 c 0
 221 565 199 577 187 575 c 0
 175 573 103 567 103 567 c 1
31 247 m 1
 31 593 l 17
 118.352539062 638.254882812 191.388671875 613.130859375 263 581 c 9
 263 581 284.84375 511.751953125 283 503 c 0
 278.750976562 482.828125 163.509765625 472.936523438 167 471 c 0
 189.884765625 458.302734375 342.671875 289.012695312 331 289 c 0
 324.67578125 288.993164062 314.99609375 258.78125 309 259 c 0
 305.487304688 259.127929688 298.26953125 263.020507812 259 261 c 1
 258.19140625 259.552734375 167.875976562 366.255859375 173 383 c 0
 174.30859375 387.276367188 139 405 139 405 c 1
 139 405 105 395 105 385 c 0
 105 375 93 299 93 283 c 0
 93 267 95 249 95 249 c 25
 31 247 l 1
EndSplineSet
Validated: 524321
EndChar

StartChar: S
Encoding: 83 83 18
Width: 390
Flags: HW
LayerCount: 2
Fore
SplineSet
255 579 m 1
 178.622070312 597.731445312 120.241210938 551.333007812 53 537 c 1
 57 425 l 1
 95.5927734375 379.69140625 132.088867188 333.1328125 233 325 c 1
 205.345703125 343.413085938 135 239 121 243 c 0
 95.8701171875 250.1796875 36.8271484375 276.348632812 51 257 c 1
 22.529296875 240.333007812 38.044921875 223.666992188 51 207 c 1
 51.0185546875 207.108398438 124.151367188 203.123046875 151 205 c 0
 190.359375 207.751953125 324.334960938 259.444335938 291 291 c 9
 305 327 l 1
 305 327 289 371 265 379 c 0
 241 387 159 413 157 415 c 0
 155 417 169 457 169 457 c 25
 169 457 199 489 213 483 c 0
 227 477 341 469 341 469 c 25
 351 513 l 1
 325 595 l 1
 303.58984375 588.1796875 285.705078125 604.412109375 255 579 c 1
EndSplineSet
Validated: 524325
EndChar

StartChar: T
Encoding: 84 84 19
Width: 420
Flags: HW
LayerCount: 2
Fore
SplineSet
197 199 m 25
 197 199 193 445 189 445 c 0
 185 445 33 457 31 457 c 0
 29 457 33 521 33 521 c 25
 391 529 l 25
 395 465 l 25
 395 465 271 441 269 441 c 0
 267 441 265 217 265 213 c 0
 265 209 261 173 261 173 c 25
 197 169 l 25
 197 199 l 25
EndSplineSet
Validated: 33
EndChar

StartChar: U
Encoding: 85 85 20
Width: 342
Flags: HW
LayerCount: 2
Fore
SplineSet
100 551 m 1
 82.6669921875 555.790039062 65.3330078125 558.416015625 48 547 c 1
 38.28515625 547 32.30078125 325 46 307 c 0
 57.4912109375 291.901367188 86 263 88 263 c 0
 90 263 210 269 210 269 c 25
 210 269 247.177734375 284.470703125 256 283 c 0
 280 279 294 317 294 317 c 17
 303.440429688 312.59765625 320.955078125 554.830078125 308 563 c 0
 302.400390625 566.53125 268.166992188 571.516601562 266 567 c 1
 250 551 l 1
 250 551 240 479 240 469 c 0
 240 459 230 361 230 361 c 1
 164 353 l 25
 120 365 l 17
 130.47265625 427 120.58984375 489 100 551 c 1
EndSplineSet
Validated: 524329
EndChar

StartChar: V
Encoding: 86 86 21
Width: 640
Flags: HW
LayerCount: 2
Fore
SplineSet
26 576 m 1
 26 576 208 139 214 139 c 0
 220 139 392 140 392 140 c 1
 392 140 605.057617188 582.981445312 606 586 c 0
 614.795898438 614.184570312 537.506835938 633.583007812 525 604 c 0
 524.610351562 603.079101562 346 257 346 257 c 1
 344.775390625 277.8671875 271.561523438 279.501953125 272 255 c 0
 272.017578125 254 95 607 95 607 c 1
 66.6337890625 609.33203125 36.3291015625 616.23828125 26 576 c 1
EndSplineSet
Validated: 524329
EndChar

StartChar: W
Encoding: 87 87 22
Width: 866
Flags: HW
LayerCount: 2
Fore
SplineSet
33 522 m 1
 299 110 l 1
 299 110 433 230 431 230 c 0
 429 230 565 120 565 120 c 1
 823 588 l 1
 821.799804688 631.48046875 784.930664062 623.153320312 753 622 c 1
 543 258 l 1
 543 258 459.704101562 466.416015625 459 462 c 0
 448.596679688 396.70703125 387.412109375 403.434570312 395 466 c 1
 395 466 305 248 301 248 c 0
 297 248 79 606 79 606 c 17
 32.94140625 599.403320312 25.736328125 565.7421875 33 522 c 1
EndSplineSet
Validated: 524325
EndChar

StartChar: X
Encoding: 88 88 23
Width: 650
Flags: HW
LayerCount: 2
Fore
SplineSet
46 188 m 1
 94 136 l 25
 94 136 300 280 300 282 c 0
 300 284 474 130 474 130 c 25
 474 130 562 188 564 190 c 0
 566 192 392 348 384 344 c 0
 376 340 600 576 600 576 c 25
 522 648 l 25
 330 464 l 25
 114 632 l 25
 114 632 56 564 56 566 c 0
 56 568 236 388 236 388 c 25
 40 228 l 25
 46 188 l 1
EndSplineSet
Validated: 37
EndChar

StartChar: Y
Encoding: 89 89 24
Width: 452
Flags: HW
LayerCount: 2
Fore
SplineSet
189 151 m 25
 183 393 l 25
 33 541 l 25
 95 589 l 25
 95 589 203 483 205 483 c 0
 207 483 351 597 351 597 c 25
 351 597 405 557 405 555 c 0
 405 553 305 467 305 467 c 25
 253 427 l 25
 253 427 243 311 243 307 c 0
 243 303 247 175 247 175 c 25
 189 151 l 25
EndSplineSet
Validated: 1
EndChar

StartChar: Z
Encoding: 90 90 25
Width: 356
Flags: HW
LayerCount: 2
Fore
SplineSet
51 529 m 25
 51 529 47 467 47 463 c 0
 47 459 229 451 229 451 c 25
 229 451 73 273 71 271 c 0
 69 269 63 227 67 223 c 0
 71 219 245 217 245 217 c 25
 259 283 l 25
 147 281 l 25
 281 439 l 25
 313 521 l 25
 95 547 l 25
 51 529 l 25
EndSplineSet
Validated: 41
EndChar

StartChar: zero
Encoding: 48 48 26
Width: 326
Flags: HW
LayerCount: 2
Fore
SplineSet
33 401 m 0
 33 473 89 531 157 531 c 0
 225 531 281 473 281 401 c 0
 281 329 225 271 157 271 c 0
 89 271 33 329 33 401 c 0
EndSplineSet
Validated: 1
EndChar

StartChar: one
Encoding: 49 49 27
Width: 356
Flags: HW
LayerCount: 2
Fore
SplineSet
115 517 m 1
 45 517 l 1
 105 571 l 1
 293 577 l 1
 297 539 l 25
 293 519 l 1
 221 505 l 25
 215 399 l 1
 215 323 l 25
 215 269 l 1
 215 269 299 271 301 271 c 0
 303 271 301 225 301 225 c 1
 53 221 l 1
 55 265 l 1
 157 269 l 1
 157 269 155 501 155 503 c 0
 155 505 128 517 115 517 c 1
EndSplineSet
Validated: 33
EndChar

StartChar: two
Encoding: 50 50 28
Width: 454
Flags: HW
LayerCount: 2
Fore
SplineSet
72 495 m 0
 43.9677734375 569.80078125 104.538085938 587.004882812 240 609 c 0
 287.372070312 616.69140625 329.04296875 588.506835938 324 533 c 0
 324 435.5625 256 346.879882812 256 263 c 0
 256 258.825195312 254.776367188 259 260 259 c 0
 267.864257812 259 295.489257812 267.056640625 312 269 c 0
 332.596679688 271.424804688 346.783203125 275.165039062 372 273 c 0
 375.729492188 273 412 273.086914062 412 261 c 0
 412 205.873046875 384.4921875 215.842773438 344 211 c 0
 272.177734375 202.409179688 205.008789062 201.721679688 134 203 c 0
 124.646484375 203 54 196.853515625 54 211 c 0
 54 232.775390625 280 353.630859375 280 481 c 0
 280 523.329101562 269.883789062 577 216 577 c 0
 169.48046875 577 73.74609375 437.801757812 72 495 c 0
 70.0400390625 559.221679688 76.6005859375 482.723632812 72 495 c 0
EndSplineSet
Validated: 524329
EndChar

StartChar: three
Encoding: 51 51 29
Width: 342
Flags: HW
LayerCount: 2
Fore
SplineSet
60 557 m 1
 58 639 l 1
 258 637 l 25
 290 195 l 25
 82 203 l 25
 76 275 l 25
 76 275 198 277 202 277 c 0
 206 277 198 385 198 385 c 1
 198 385 62 381 66 381 c 0
 70 381 68 453 68 453 c 1
 68 453 208 459 210 459 c 0
 212 459 198 541 196 543 c 0
 194 545 60 557 60 557 c 1
EndSplineSet
Validated: 37
EndChar

StartChar: four
Encoding: 52 52 30
Width: 402
Flags: HW
LayerCount: 2
Fore
SplineSet
139 493 m 1
 139 493 287 493 287 491 c 0
 287 489 265 609 265 609 c 1
 265 609 145 495 139 493 c 1
217 180 m 1
 219 434 l 1
 37 457 l 1
 303 710 l 1
 352.68359375 528 315.80859375 369 319 187 c 1
 217 180 l 1
EndSplineSet
Validated: 524325
EndChar

StartChar: five
Encoding: 53 53 31
Width: 454
Flags: HW
LayerCount: 2
Fore
SplineSet
65 442 m 25
 63 366 l 25
 237 360 l 25
 237 360 241 304 241 302 c 0
 241 300 59 284 59 284 c 25
 59 196 l 25
 59 196 351 186 351 194 c 0
 351 202 315 364 315 364 c 25
 315 364 313 426 311 426 c 0
 309 426 159 422 159 422 c 25
 169 512 l 25
 353 508 l 25
 369 612 l 25
 125 606 l 25
 49 588 l 25
 65 442 l 25
EndSplineSet
Validated: 41
EndChar

StartChar: six
Encoding: 54 54 32
Width: 434
Flags: HW
LayerCount: 2
Fore
SplineSet
74 551 m 1
 73.5556640625 539 l 0
 62 227 l 1
 318 239 l 1
 301.70703125 266.860351562 341.890625 381.407226562 272 327 c 1
 268.529296875 355.8203125 218.3125 334.62109375 192 339 c 1
 169.334960938 381.666992188 165.334960938 421.666992188 180 459 c 1
 177.796772053 451.426226208 225.091863988 530.510201893 240 535 c 4
 257.266520896 540.200059402 307.028151647 553.118333024 306 553 c 5
 308 612 l 1
 271.333333336 623.467535589 234.666666664 626.740969898 198 613 c 1
 104 599 l 25
 74 551 l 1
EndSplineSet
Validated: 524325
EndChar

StartChar: seven
Encoding: 55 55 33
Width: 516
Flags: HW
LayerCount: 2
Fore
SplineSet
57 566 m 25
 57 508 l 25
 271 504 l 25
 93 204 l 25
 93 204 165 168 167 168 c 0
 169 168 373 472 373 474 c 0
 373 476 425 560 425 560 c 25
 433 586 l 25
 57 582 l 25
 57 566 l 25
EndSplineSet
Validated: 9
EndChar

StartChar: eight
Encoding: 56 56 34
Width: 387
Flags: HW
LayerCount: 2
Fore
SplineSet
331 584 m 1
 317.077148438 445.485351562 82.767578125 400.819335938 63 230 c 1
 148.205078125 173.4296875 236.46484375 176.499023438 327 224 c 1
 304.096679688 377.583007812 88.3037109375 425.004882812 55 574 c 1
 94.01953125 607.580078125 134.98828125 637.361328125 195 630 c 1
 272.170898438 647.03125 293.424804688 607.219726562 331 584 c 1
EndSplineSet
Validated: 524325
EndChar

StartChar: nine
Encoding: 57 57 35
Width: 416
Flags: HW
LayerCount: 2
Fore
SplineSet
63 550 m 25
 57 464 l 25
 251 468 l 25
 251 468 261 300 259 298 c 0
 257 296 245 230 227 220 c 0
 209 210 39 176 37 176 c 0
 35 176 31 148 31 148 c 25
 31 148 163 140 181 138 c 0
 199 136 361 144 363 144 c 0
 365 144 347 234 343 262 c 0
 339 290 345 440 345 440 c 25
 345 440 331 524 331 530 c 0
 331 536 319 614 319 614 c 25
 319 614 305 648 301 650 c 0
 297 652 267 658 243 658 c 0
 219 658 119 656 115 654 c 0
 111 652 103 660 91 638 c 0
 79 616 74 584 63 550 c 25
EndSplineSet
Validated: 41
EndChar

StartChar: colon
Encoding: 58 58 36
Width: 242
Flags: HW
LayerCount: 2
Fore
SplineSet
70 290 m 0
 70 320 95 344 126 344 c 0
 157 344 182 320 182 290 c 0
 182 260 157 236 126 236 c 0
 95 236 70 260 70 290 c 0
68 552 m 0
 68 583 95 608 128 608 c 0
 161 608 188 583 188 552 c 0
 188 521 161 496 128 496 c 0
 95 496 68 521 68 552 c 0
EndSplineSet
Validated: 1
EndChar

StartChar: semicolon
Encoding: 59 59 37
Width: 160
Flags: HW
LayerCount: 2
Fore
SplineSet
43 346 m 0
 43 414 60.24609375 461.0390625 77 470 c 0
 163 516 111 414 111 346 c 0
 111 278 95.8701171875 219.780273438 77 222 c 0
 9 230 43 278 43 346 c 0
37 578 m 0
 37 601 55 620 77 620 c 0
 99 620 117 601 117 578 c 0
 117 555 99 536 77 536 c 0
 55 536 37 555 37 578 c 0
EndSplineSet
Validated: 524321
EndChar

StartChar: less
Encoding: 60 60 38
Width: 432
Flags: HW
LayerCount: 2
Fore
SplineSet
346 626 m 1028
346 626 m 25
 71 416 l 25
 71 416 362 172 361 172 c 0
 360 172 373 203 373 203 c 25
 115 413 l 25
 115 413 373 603 371 603 c 0
 369 603 350 620 350 620 c 25
 346 626 l 25
EndSplineSet
Validated: 37
EndChar

StartChar: equal
Encoding: 61 61 39
Width: 510
Flags: HW
LayerCount: 2
Fore
SplineSet
96 354 m 1
 96 414 l 1
 466 414 l 1
 466 354 l 1
 96 354 l 1
51 310 m 1
 425 310 l 1
 425 252 l 1
 51 252 l 1
 51 310 l 1
EndSplineSet
Validated: 1
EndChar

StartChar: greater
Encoding: 62 62 40
Width: 440
Flags: HW
LayerCount: 2
Fore
SplineSet
68 586 m 1028
68 586 m 25
 306 436 l 25
 82 276 l 25
 144 208 l 25
 410 448 l 25
 148 644 l 25
 68 586 l 25
EndSplineSet
Validated: 9
EndChar

StartChar: question
Encoding: 63 63 41
Width: 324
Flags: HW
LayerCount: 2
Fore
SplineSet
192 148 m 0
 192 165 205 178 220 178 c 0
 235 178 248 165 248 148 c 0
 248 131 235 118 220 118 c 0
 205 118 192 131 192 148 c 0
34 560 m 1024
34 560 m 1
 185 608 l 25
 225 543 l 25
 225 543 241 424 240 420 c 0
 239 416 220 310 220 310 c 25
 159 277 l 25
 159 277 206 247 211 249 c 0
 216 251 255 258 255 258 c 25
 255 258 277 374 277 384 c 0
 277 394 278 479 278 496 c 0
 278 513 261 618 260 623 c 0
 259 628 232 658 228 659 c 0
 224 660 183 661 165 653 c 0
 147 645 80 624 78 622 c 0
 76 620 50 605 42 598 c 0
 34 591 25 588 24 585 c 0
 23 582 34 560 34 560 c 1
EndSplineSet
Validated: 41
EndChar

StartChar: at
Encoding: 64 64 42
Width: 1000
Flags: H
LayerCount: 2
Fore
SplineSet
520 112 m 1028
520 112 m 1
 520 112 278 346 276 354 c 0
 274 362 262 560 262 576 c 0
 262 592 348 684 388 680 c 0
 428 676 570 670 598 666 c 0
 626 662 774 676 774 646 c 0
 774 616 726 462 690 456 c 0
 654 450 660 332 658 330 c 0
 656 328 530 294 506 298 c 0
 482 302 406 396 390 448 c 0
 374 500 362 502 368 526 c 0
 374 550 394 612 472 608 c 0
 550 604 588 628 610 604 c 0
 632 580 660 588 654 536 c 0
 648 484 670 482 622 438 c 0
 574 394 612 372 564 390 c 0
 516 408 474 446 468 480 c 0
 462 514 444 536 468 546 c 0
 492 556 492 562 504 558 c 0
 516 554 536 572 536 534 c 0
 536 496 536 488 536 486 c 0
 536 468 l 25
 536 468 560 464 570 494 c 0
 580 524 588 520 578 536 c 0
 568 552 576 558 552 566 c 0
 528 574 506 586 482 582 c 0
 458 578 428 554 428 542 c 0
 428 530 440 466 448 454 c 0
 456 442 460 430 478 410 c 0
 496 390 530 360 542 358 c 0
 554 356 580 346 598 362 c 0
 616 378 646 400 648 410 c 0
 650 420 690 494 690 512 c 0
 690 530 698 592 694 594 c 0
 690 596 638 632 598 634 c 0
 558 636 408 638 408 638 c 25
 408 638 370 662 352 626 c 0
 334 590 312 552 312 512 c 0
 312 472 314 438 332 416 c 0
 350 394 234 448 384 352 c 0
 534 256 512 286 540 240 c 0
 568 194 540 124 538 122 c 0
 536 120 520 112 520 112 c 1
EndSplineSet
Validated: 33
EndChar

StartChar: slash
Encoding: 47 47 43
Width: 422
Flags: HW
LayerCount: 2
Fore
SplineSet
74 132 m 1024
74 132 m 25
 316 674 l 25
 372 646 l 25
 372 646 144 92 142 94 c 0
 140 96 101 117 74 132 c 25
EndSplineSet
Validated: 33
EndChar

StartChar: period
Encoding: 46 46 44
Width: 236
Flags: HW
LayerCount: 2
Fore
SplineSet
74 174 m 0
 74 199 96 220 122 220 c 0
 148 220 170 199 170 174 c 0
 170 149 148 128 122 128 c 0
 96 128 74 149 74 174 c 0
46 176 m 0
 46 222 79 260 120 260 c 0
 161 260 194 222 194 176 c 0
 194 130 161 92 120 92 c 0
 79 92 46 130 46 176 c 0
EndSplineSet
Validated: 9
EndChar

StartChar: hyphen
Encoding: 45 45 45
Width: 376
Flags: HW
LayerCount: 2
Fore
SplineSet
18 122 m 1
 354 122 l 1
 354 56 l 1
 18 56 l 1
 18 122 l 1
EndSplineSet
Validated: 1
EndChar

StartChar: comma
Encoding: 44 44 46
Width: 222
Flags: HW
LayerCount: 2
Fore
SplineSet
72 100 m 1
 134 218 l 25
 134 218 172 204 174 202 c 0
 176 200 140 102 134 98 c 0
 128 94 130 66 124 64 c 0
 118 62 72 100 72 100 c 1
EndSplineSet
Validated: 33
EndChar

StartChar: plus
Encoding: 43 43 47
Width: 342
Flags: HW
LayerCount: 2
Fore
SplineSet
44 444 m 1024
44 444 m 25
 42 364 l 25
 42 364 114 360 118 360 c 0
 122 360 122 234 122 234 c 25
 196 232 l 25
 200 358 l 25
 286 360 l 25
 286 456 l 25
 286 456 194 454 200 454 c 0
 206 454 200 564 200 564 c 25
 146 572 l 25
 126 446 l 25
 44 444 l 25
EndSplineSet
Validated: 37
EndChar

StartChar: asterisk
Encoding: 42 42 48
Width: 464
Flags: HW
LayerCount: 2
Fore
SplineSet
162 476 m 1024
162 476 m 25
 242 592 l 25
 298 474 l 25
 418 412 l 25
 322 348 l 25
 372 252 l 25
 294 302 l 25
 228 312 l 25
 152 244 l 25
 164 338 l 25
 62 412 l 25
 162 476 l 25
EndSplineSet
Validated: 1
EndChar

StartChar: parenright
Encoding: 41 41 49
Width: 420
Flags: HW
LayerCount: 2
Fore
SplineSet
110 662 m 1024
110 662 m 1
 110 662 250 516 252 510 c 0
 254 504 274 398 272 388 c 0
 270 378 226 276 216 254 c 0
 206 232 130 160 118 150 c 0
 106 140 118 106 132 106 c 0
 146 106 254 170 260 178 c 0
 266 186 356 282 354 302 c 0
 352 322 338 468 336 488 c 0
 334 508 322 602 316 616 c 0
 310 630 246 696 244 696 c 0
 242 696 164 726 164 726 c 25
 110 662 l 1
EndSplineSet
Validated: 41
EndChar

StartChar: parenleft
Encoding: 40 40 50
Width: 446
Flags: HW
LayerCount: 2
Fore
SplineSet
272 696 m 1024
272 696 m 1
 272 696 118 586 112 576 c 0
 106 566 74 496 74 478 c 0
 74 460 78 374 76 360 c 0
 74 346 70 278 72 252 c 0
 74 226 94 144 100 128 c 0
 106 112 158 72 170 68 c 0
 182 64 262 56 268 56 c 0
 274 56 324 70 324 70 c 25
 354 134 l 25
 354 134 296 146 292 146 c 0
 288 146 234 126 232 126 c 0
 230 126 168 152 158 190 c 0
 148 228 154 256 146 310 c 0
 138 364 118 452 122 464 c 0
 126 476 262 624 262 624 c 25
 262 624 360 680 360 682 c 0
 360 684 330 728 326 728 c 0
 322 728 272 696 272 696 c 1
EndSplineSet
Validated: 41
EndChar

StartChar: quotesingle
Encoding: 39 39 51
Width: 130
Flags: HW
LayerCount: 2
Fore
SplineSet
46 738 m 1024
46 738 m 25
 42 694 l 25
 86 688 l 25
 86 744 l 25
 46 738 l 25
EndSplineSet
Validated: 9
EndChar

StartChar: ampersand
Encoding: 38 38 52
Width: 1000
Flags: H
LayerCount: 2
Fore
SplineSet
348 188 m 1028
348 188 m 1
 348 188 140 418 138 420 c 0
 136 422 160 548 160 548 c 25
 160 548 342 570 358 568 c 0
 374 566 446 560 430 516 c 0
 414 472 340 384 340 384 c 25
 340 384 282 358 266 356 c 0
 250 354 122 222 122 218 c 0
 122 214 148 156 176 162 c 0
 204 168 300 292 300 294 c 0
 300 296 346 310 346 310 c 25
 346 310 392 294 398 280 c 0
 404 266 410 248 404 226 c 0
 398 204 254 400 254 400 c 25
 254 400 222 378 222 376 c 0
 222 374 332 244 336 240 c 0
 340 236 366 198 366 198 c 25
 348 188 l 1
EndSplineSet
Validated: 37
EndChar

StartChar: bracketleft
Encoding: 91 91 53
Width: 294
Flags: HW
LayerCount: 2
Fore
SplineSet
240 652 m 1024
240 652 m 1
 80 648 l 25
 80 648 74 108 74 100 c 0
 74 92 244 92 246 92 c 0
 248 92 236 128 236 128 c 25
 236 128 138 128 136 128 c 0
 134 128 142 602 142 602 c 25
 254 610 l 25
 240 652 l 1
EndSplineSet
Validated: 41
EndChar

StartChar: backslash
Encoding: 92 92 54
Width: 356
Flags: HW
LayerCount: 2
Fore
SplineSet
22 704 m 1024
22 704 m 25
 238 78 l 25
 284 94 l 25
 60 716 l 25
 22 704 l 25
EndSplineSet
Validated: 9
EndChar

StartChar: bracketright
Encoding: 93 93 55
Width: 254
Flags: HW
LayerCount: 2
Fore
SplineSet
54 718 m 1024
54 718 m 25
 128 710 l 25
 128 710 154 92 152 92 c 0
 150 92 84 80 84 80 c 25
 84 80 78 34 82 34 c 0
 86 34 168 42 168 42 c 25
 168 42 206 48 208 52 c 0
 210 56 184 756 180 756 c 0
 176 756 72 764 64 764 c 0
 56 764 58 736 54 718 c 25
EndSplineSet
Validated: 41
EndChar

StartChar: asciicircum
Encoding: 94 94 56
Width: 394
Flags: HW
LayerCount: 2
Fore
SplineSet
70 532 m 1024
70 532 m 1
 218 698 l 25
 340 538 l 25
 340 538 300 514 296 516 c 0
 292 518 238 612 238 612 c 25
 238 612 218 608 212 608 c 0
 206 608 148 526 148 526 c 25
 70 532 l 1
EndSplineSet
Validated: 33
EndChar

StartChar: exclam
Encoding: 33 33 57
Width: 244
Flags: HW
LayerCount: 2
Fore
SplineSet
86 182 m 0
 86 200 99 214 114 214 c 0
 129 214 142 200 142 182 c 0
 142 164 129 150 114 150 c 0
 99 150 86 164 86 182 c 0
78 708 m 1024
78 708 m 25
 92 298 l 25
 148 292 l 25
 148 292 172 708 170 708 c 0
 168 708 114 708 78 708 c 25
EndSplineSet
Validated: 41
EndChar

StartChar: quotedbl
Encoding: 34 34 58
Width: 172
Flags: HW
LayerCount: 2
Fore
SplineSet
142 718 m 1
 142 616 l 1
 112 616 l 5
 112 718 l 5
 142 718 l 1
86 720 m 5
 86 618 l 5
 54 618 l 5
 54 720 l 5
 86 720 l 5
EndSplineSet
Validated: 1
EndChar

StartChar: numbersign
Encoding: 35 35 59
Width: 357
Flags: HW
LayerCount: 2
Fore
SplineSet
62 503 m 1024
62 503 m 1
 212 346 l 25
 245 375 l 25
 197 433 l 25
 221 453 l 25
 221 453 273 410 275 408 c 0
 277 406 306 428 306 429 c 0
 306 430 160 565 160 565 c 25
 160 565 129 554 129 553 c 0
 129 552 194 490 196 489 c 0
 198 488 175 464 175 464 c 25
 98 518 l 25
 31 462 l 25
 69 430 l 25
 69 430 136 359 138 358 c 0
 140 357 328 528 329 528 c 0
 330 528 306 551 306 551 c 25
 118 428 l 25
 92 454 l 25
 270 577 l 25
 246 606 l 25
 98 524 l 25
 85 532 l 25
 56 518 l 25
 62 503 l 1
EndSplineSet
Validated: 37
EndChar

StartChar: dollar
Encoding: 36 36 60
Width: 426
Flags: HW
LayerCount: 2
Fore
SplineSet
262 135 m 1
 228 135 l 1
 228 621 l 1
 262 621 l 1
 262 135 l 1
165 540 m 1
 198.775390625 572.000976562 518.499023438 579.875976562 343 472 c 0
 209.573242188 389.985351562 401.475664381 361.900745422 284 212 c 0
 258.123068079 178.980638888 -1.58203125 137.517578125 146 185 c 1
 148.0390625 328.16796875 234.1796875 232.17578125 165 540 c 1
109 380 m 1025
576 290 m 1049
EndSplineSet
Validated: 524325
EndChar

StartChar: percent
Encoding: 37 37 61
Width: 424
Flags: HW
LayerCount: 2
Fore
SplineSet
44 324 m 1028
44 324 m 5
 320 532 l 29
 320 532 368 488 370 488 c 4
 372 488 90 278 90 278 c 29
 44 324 l 5
234 336 m 4
 234 362 258 384 288 384 c 4
 318 384 342 362 342 336 c 4
 342 310 318 288 288 288 c 4
 258 288 234 310 234 336 c 4
82 470 m 4
 82 501 104 526 132 526 c 4
 160 526 182 501 182 470 c 4
 182 439 160 414 132 414 c 4
 104 414 82 439 82 470 c 4
EndSplineSet
Validated: 33
EndChar
